<svg width="39" height="41" viewBox="0 0 39 41" fill="none" xmlns="http://www.w3.org/2000/svg">
<path d="M22.6787 20.4972L38.792 1.29017C39.0621 0.970975 38.835 0.486042 38.4176 0.486042H33.5191C33.2306 0.486042 32.9544 0.614948 32.7641 0.83593L19.4745 16.6791L6.18488 0.83593C6.00073 0.614948 5.7245 0.486042 5.42986 0.486042H0.531419C0.114009 0.486042 -0.113112 0.970975 0.156977 1.29017L16.2703 20.4972L0.156977 39.7042C0.0964746 39.7754 0.05766 39.8624 0.0451399 39.955C0.0326198 40.0475 0.0469202 40.1417 0.0863448 40.2264C0.125769 40.311 0.188662 40.3826 0.267555 40.4326C0.346447 40.4826 0.438026 40.5089 0.531419 40.5084H5.42986C5.71836 40.5084 5.99459 40.3795 6.18488 40.1585L19.4745 24.3153L32.7641 40.1585C32.9483 40.3795 33.2245 40.5084 33.5191 40.5084H38.4176C38.835 40.5084 39.0621 40.0234 38.792 39.7042L22.6787 20.4972Z" fill="white"/>
</svg>