<svg width="42" height="30" viewBox="0 0 42 30" fill="none" xmlns="http://www.w3.org/2000/svg">
<path d="M37.6667 4.58335V25.4167H4.33341V4.58335H37.6667ZM37.6667 0.416687H4.33341C2.04175 0.416687 0.187581 2.29169 0.187581 4.58335L0.166748 25.4167C0.166748 27.7084 2.04175 29.5834 4.33341 29.5834H37.6667C39.9584 29.5834 41.8334 27.7084 41.8334 25.4167V4.58335C41.8334 2.29169 39.9584 0.416687 37.6667 0.416687ZM18.9167 6.66669H23.0834V10.8334H18.9167V6.66669ZM18.9167 12.9167H23.0834V17.0834H18.9167V12.9167ZM12.6667 6.66669H16.8334V10.8334H12.6667V6.66669ZM12.6667 12.9167H16.8334V17.0834H12.6667V12.9167ZM6.41675 12.9167H10.5834V17.0834H6.41675V12.9167ZM6.41675 6.66669H10.5834V10.8334H6.41675V6.66669ZM12.6667 19.1667H29.3334V23.3334H12.6667V19.1667ZM25.1667 12.9167H29.3334V17.0834H25.1667V12.9167ZM25.1667 6.66669H29.3334V10.8334H25.1667V6.66669ZM31.4167 12.9167H35.5834V17.0834H31.4167V12.9167ZM31.4167 6.66669H35.5834V10.8334H31.4167V6.66669Z" fill="#3382E9"/>
</svg>
