<svg width="40" height="54" viewBox="0 0 40 54" fill="none" xmlns="http://www.w3.org/2000/svg">
<path d="M35.6596 29.35L27.5596 25.3C30.7846 22.8 32.8596 18.9 32.8596 14.5C32.8596 6.925 26.6846 0.75 19.1096 0.75C11.5346 0.75 5.35957 6.925 5.35957 14.5C5.35957 19.825 8.40957 24.45 12.8596 26.725V34.875C7.48457 33.725 7.80957 33.775 7.20957 33.775C5.88457 33.775 4.63457 34.3 3.68457 35.25L0.18457 38.8L12.9096 51.525C13.9846 52.625 15.4846 53.25 17.0346 53.25H32.7846C35.2346 53.25 37.3096 51.5 37.7096 49.075L39.7096 37.3C40.2596 34.05 38.6346 30.85 35.6596 29.35ZM34.7846 36.475L32.7846 48.25H17.0346C16.8096 48.25 16.6096 48.15 16.4346 48L7.23457 38.8L17.8596 41.025V14.5C17.8596 13.8 18.4096 13.25 19.1096 13.25C19.8096 13.25 20.3596 13.8 20.3596 14.5V29.5H24.7596L33.4096 33.825C34.4096 34.325 34.9596 35.4 34.7846 36.475ZM10.3596 14.5C10.3596 9.675 14.2846 5.75 19.1096 5.75C23.9346 5.75 27.8596 9.675 27.8596 14.5C27.8596 16.875 26.9096 19.025 25.3596 20.6V14.5C25.3596 11.05 22.5596 8.25 19.1096 8.25C15.6596 8.25 12.8596 11.05 12.8596 14.5V20.6C11.3096 19.025 10.3596 16.875 10.3596 14.5Z" fill="#3382E9"/>
</svg>
