<svg width="30" height="47" viewBox="0 0 30 47" fill="none" xmlns="http://www.w3.org/2000/svg">
<path d="M29.5149 5.47017V0.725196C29.5149 0.313924 29.0422 0.0868028 28.723 0.338477L1.05115 21.9518C0.816039 22.1346 0.625796 22.3687 0.494931 22.6363C0.364067 22.9038 0.29604 23.1977 0.29604 23.4956C0.29604 23.7934 0.364067 24.0873 0.494931 24.3549C0.625796 24.6224 0.816039 24.8565 1.05115 25.0394L28.723 46.6527C29.0484 46.9043 29.5149 46.6772 29.5149 46.2659V41.521C29.5149 41.2202 29.3737 40.9317 29.1404 40.7475L7.04222 23.4986L29.1404 6.24361C29.3737 6.05946 29.5149 5.77096 29.5149 5.47017V5.47017Z" fill="white" fill-opacity="0.85"/>
</svg>
