<svg width="146" height="71" viewBox="0 0 146 71" fill="none" xmlns="http://www.w3.org/2000/svg">
<path d="M141.282 53.0077V48.4203C142.637 46.8569 143.322 45.0076 143.322 42.8725C143.322 40.5364 142.541 38.562 140.983 36.9495C139.424 35.3415 137.537 34.533 135.318 34.533C133.098 34.533 131.216 35.337 129.653 36.9495C128.095 38.562 127.313 40.5319 127.313 42.8725C127.313 45.0434 128.02 46.915 129.42 48.4962V53.0122H124.662V58.6136H145.966V53.0122H141.273L141.282 53.0077ZM133.414 40.8535C133.946 40.3041 134.582 40.0271 135.322 40.0271C136.062 40.0271 136.685 40.3041 137.201 40.8535C137.712 41.4074 137.969 42.0774 137.969 42.8725C137.969 43.6676 137.712 44.3376 137.201 44.8915C136.685 45.4409 136.062 45.7179 135.322 45.7179C134.582 45.7179 133.946 45.4409 133.414 44.8915C132.878 44.3421 132.612 43.6676 132.612 42.8725C132.612 42.0774 132.878 41.4074 133.414 40.8535ZM133.668 53.0077V51.0378C134.2 51.1495 134.748 51.2031 135.322 51.2031C135.896 51.2031 136.494 51.1406 137.043 51.02V53.0032H133.668V53.0077Z" fill="white"/>
<path d="M84.6886 47.4509L75.8403 33.0767L66.1359 47.4509L70.5413 50.8814L75.8403 43.0287L80.2832 50.8814L84.6886 47.4509Z" fill="white"/>
<path d="M92.1446 33.1572H86.4757V51.0647H92.1446V44.695V43.288H96.309V37.5481H92.1446V33.1572Z" fill="white"/>
<path d="M120.372 35.7078H114.708V58.6047H120.372V49.6621H124.541V43.9222H120.372V35.7078Z" fill="white"/>
<path d="M105.253 38.3923C103.037 38.3923 101.151 39.1964 99.5879 40.8089C98.0294 42.4214 97.248 44.3913 97.248 46.7319C97.248 49.0725 98.0252 50.9887 99.5879 52.6191C101.146 54.2495 103.037 55.0669 105.253 55.0669C107.468 55.0669 109.355 54.2495 110.917 52.6191C112.476 50.9887 113.257 49.0233 113.257 46.7319C113.257 44.4404 112.476 42.4214 110.917 40.8089C109.359 39.2008 107.472 38.3923 105.253 38.3923ZM107.131 48.7464C106.616 49.2958 105.992 49.5728 105.253 49.5728C104.513 49.5728 103.877 49.2958 103.345 48.7464C102.809 48.197 102.547 47.5225 102.547 46.7274C102.547 45.9323 102.813 45.2623 103.345 44.7084C103.877 44.159 104.513 43.882 105.253 43.882C105.992 43.882 106.616 44.159 107.131 44.7084C107.642 45.2623 107.9 45.9323 107.9 46.7274C107.9 47.5225 107.642 48.1925 107.131 48.7464Z" fill="white"/>
<path d="M81.4673 64.0631H86.9409H92.0196H92.0612V52.771H76.5341V57.8274H86.9409V59.5695H76.3429V61.0301V64.0631V71.0001H92.3313V65.9392H81.4673V64.0631Z" fill="white"/>
<path d="M38.5226 21.1013L29.346 6.72705L19.6415 21.1013L24.047 24.5318L29.346 16.6791L34.1172 24.5318L38.5226 21.1013Z" fill="white"/>
<path d="M40.2269 25.8896C38.1156 25.8896 36.3202 26.6579 34.8323 28.1901C33.3486 29.7222 32.6047 31.6027 32.6047 33.8316C32.6047 36.0606 33.3486 37.883 34.8323 39.4375C36.3161 40.9919 38.1156 41.7692 40.2269 41.7692C42.3382 41.7692 44.1336 40.9919 45.6215 39.4375C47.1052 37.883 47.8492 36.0115 47.8492 33.8316C47.8492 31.6518 47.1052 29.7266 45.6215 28.1901C44.1378 26.6579 42.3382 25.8896 40.2269 25.8896ZM42.014 35.7524C41.5236 36.275 40.9293 36.5385 40.2269 36.5385C39.5245 36.5385 38.9178 36.275 38.4107 35.7524C37.9037 35.2253 37.6502 34.5865 37.6502 33.8316C37.6502 33.0768 37.9037 32.4335 38.4107 31.9109C38.9178 31.3883 39.5245 31.1248 40.2269 31.1248C40.9293 31.1248 41.5278 31.3883 42.014 31.9109C42.5045 32.438 42.7455 33.0768 42.7455 33.8316C42.7455 34.5865 42.5003 35.2298 42.014 35.7524Z" fill="white"/>
<path d="M42.1801 11.7789H37.8828V17.5188H42.1801V18.2201V24.5942H47.849V6.68677H42.1801V11.7789Z" fill="white"/>
<path d="M71.8005 18.975H63.9829V15.2676H69.1282V9.59472H58.6424V5.67285H69.1282V0H52.907V15.2676H58.2517V18.975H50.4965V24.7149H71.8005V18.975Z" fill="white"/>
<path d="M68.7374 33.8316C68.7374 31.6072 67.9935 29.7266 66.5098 28.1901C65.026 26.6579 63.2265 25.8896 61.1152 25.8896C59.0039 25.8896 57.2043 26.6579 55.7206 28.1901C54.2369 29.7266 53.4929 31.6027 53.4929 33.8316C53.4929 36.0606 54.2369 37.8875 55.7206 39.4375C57.2043 40.9919 59.0039 41.7692 61.1152 41.7692C63.2265 41.7692 65.0219 40.9919 66.5098 39.4375C67.9935 37.883 68.7374 36.0159 68.7374 33.8316ZM62.9023 35.7524C62.4119 36.2795 61.8175 36.5385 61.1152 36.5385C60.4128 36.5385 59.806 36.275 59.299 35.7524C58.7919 35.2253 58.5384 34.5865 58.5384 33.8316C58.5384 33.0768 58.7919 32.4335 59.299 31.9109C59.806 31.3883 60.4128 31.1248 61.1152 31.1248C61.8175 31.1248 62.416 31.3883 62.9023 31.9109C63.3885 32.438 63.6337 33.0768 63.6337 33.8316C63.6337 34.5865 63.3885 35.2298 62.9023 35.7524Z" fill="white"/>
<path d="M81.9161 26.3899C84.1313 26.3899 86.0182 25.5724 87.5808 23.942C88.358 23.1291 88.9399 22.2357 89.3306 21.2575H91.9904V29.932H97.2687V7.03516H91.9904V15.5578H89.5841C89.2183 14.2759 88.5492 13.1368 87.5808 12.1363C86.0223 10.5282 84.1355 9.71971 81.9161 9.71971C79.6968 9.71971 77.8141 10.5237 76.2514 12.1363C74.6928 13.7488 73.9115 15.7186 73.9115 18.0593C73.9115 20.3999 74.6887 22.3161 76.2514 23.9465C77.8099 25.5769 79.7009 26.3943 81.9161 26.3943V26.3899ZM80.0085 16.0358C80.5404 15.4864 81.1763 15.2094 81.9161 15.2094C82.6559 15.2094 83.2793 15.4864 83.7947 16.0358C84.3059 16.5897 84.5635 17.2597 84.5635 18.0548C84.5635 18.8499 84.3059 19.5199 83.7947 20.0738C83.2793 20.6232 82.6559 20.9001 81.9161 20.9001C81.1763 20.9001 80.5404 20.6232 80.0085 20.0738C79.4723 19.5244 79.2063 18.8499 79.2063 18.0548C79.2063 17.2597 79.4723 16.5897 80.0085 16.0358Z" fill="white"/>
<path d="M103.944 7.03516H98.6653V29.932H103.944V7.03516Z" fill="white"/>
<path d="M20.5601 9.38474L21.9566 4.76605H18.7439L19.9616 0.741455H15.4731L14.2554 4.76605H11.6869L12.9046 0.741455H11.0552C9.48417 0.741455 8.08773 1.83136 7.60147 3.43941L7.19833 4.77052H3.98568L2.58924 9.38921H5.80189L4.60909 13.3379H1.39644L0 17.9566H3.21265L1.99492 21.9812H6.48348L7.70121 17.9566H10.2697L9.05194 21.9812H10.9014C12.4724 21.9812 13.8688 20.8913 14.3551 19.2877L14.7582 17.9566H17.9709L19.3673 13.3379H16.1547L17.3475 9.38921H20.5601V9.38474ZM11.6661 13.3334H9.09766L10.2905 9.38474H12.8589L11.6661 13.3334Z" fill="white"/>
</svg>
