<svg width="1080" height="140" viewBox="0 0 1080 140" fill="none" xmlns="http://www.w3.org/2000/svg">
<g clip-path="url(#clip0_7_509)">
<path d="M180.876 -1738.5L940.753 -1722.89L719.037 -1218.09L180.876 -1738.5Z" fill="#ABCD05"/>
<path d="M614.81 -393.265L1185.49 -102.02L729.391 147.357L657.938 -189.814L614.81 -393.265Z" fill="#BF0079"/>
<path d="M614.81 -393.265L508.274 -583.933L387.618 -799.86L864.766 -690.71L614.81 -393.265Z" fill="#7058A3"/>
<path d="M1530 -376.043L1185.49 -102.02L1027.78 -897.529L1530 -376.043Z" fill="#29619E"/>
<path d="M1450.33 -1712.48L1302.64 -1165.2L719.037 -1218.09L1450.33 -1712.48Z" fill="#009B46"/>
<path d="M719.037 -1218.09L940.753 -1722.89L1450.33 -1712.48L719.037 -1218.09Z" fill="#6FBA2C"/>
<path d="M864.766 -690.71L387.618 -799.86L1027.78 -897.529L864.766 -690.71Z" fill="#009DDA"/>
<path d="M189.348 -702.345L719.037 -1218.09L387.618 -799.86L189.348 -702.345Z" fill="#9BCB6C"/>
<path d="M-231.066 -1747L180.876 -1738.5L146.476 -1056.05L-231.066 -1747Z" fill="#E5DE00"/>
<path d="M189.348 -702.345L-261.102 -1257.74L146.476 -1056.05L189.348 -702.345Z" fill="#E5DF1C"/>
<path d="M657.938 -189.814L729.391 147.357L334.563 195.808L500.829 -2.43787L657.938 -189.814Z" fill="#EB6E95"/>
<path d="M290.237 -291.08L614.81 -393.265L657.938 -189.814L290.237 -291.08Z" fill="#B081B7"/>
<path d="M143.396 -417.299L387.618 -799.86L290.237 -291.08L143.396 -417.299Z" fill="#45A0AE"/>
<path d="M-45.7178 -219.207L143.396 -417.299L290.237 -291.08L-45.7178 -219.207Z" fill="#E1384B"/>
<path d="M-45.7178 -219.207L334.563 195.808L-102.366 249.388L-45.7178 -219.207Z" fill="#F08300"/>
<path d="M-45.7178 -219.207L-324.853 73.1099L-303.374 -460.24L143.396 -417.299L-45.7178 -219.207Z" fill="#F8B500"/>
<path d="M-751 -160.805L-303.374 -460.24L-324.853 73.1099L-751 -160.805Z" fill="#F6D600"/>
<path d="M1302.64 -1165.2L1530 -376.043L719.037 -1218.09L1302.64 -1165.2Z" fill="#15AE67"/>
<path d="M146.476 -1056.05L180.876 -1738.5L719.037 -1218.09L146.476 -1056.05Z" fill="#CFDD3C"/>
<path d="M-261.102 -1257.74L-231.066 -1747L146.476 -1056.05L-261.102 -1257.74Z" fill="#F9E600"/>
<path d="M-303.374 -460.24L-261.102 -1257.74L189.348 -702.345L-303.374 -460.24Z" fill="#EEEF99"/>
<path d="M146.476 -1056.05L719.037 -1218.09L189.348 -702.345L146.476 -1056.05Z" fill="#EFEC65"/>
<path d="M387.618 -799.86L719.037 -1218.09L1027.78 -897.529L387.618 -799.86Z" fill="#05B9DF"/>
<path d="M1027.78 -897.529L1185.49 -102.02L864.766 -690.71L1027.78 -897.529Z" fill="#056FB8"/>
<path d="M1069.03 312L729.391 147.357L1185.49 -102.02L1069.03 312Z" fill="#BB0B43"/>
<path d="M864.766 -690.71L1185.49 -102.02L614.81 -393.265L864.766 -690.71Z" fill="#4D4398"/>
<path d="M508.274 -583.933L614.81 -393.265L290.237 -291.08L508.274 -583.933Z" fill="#8476B5"/>
<path d="M657.938 -189.814L500.829 -2.43787L290.237 -291.08L657.938 -189.814Z" fill="#A6569D"/>
<path d="M143.396 -417.299L-303.374 -460.24L387.618 -799.86L143.396 -417.299Z" fill="#69BD83"/>
<path d="M290.237 -291.08L387.618 -799.86L508.274 -583.933L290.237 -291.08Z" fill="#0986BD"/>
<path d="M-45.7178 -219.207L500.829 -2.43787L334.563 195.808L-45.7178 -219.207Z" fill="#ED6D00"/>
<path d="M290.237 -291.08L500.829 -2.43787L-45.7178 -219.207L290.237 -291.08Z" fill="#EA5506"/>
<path d="M-45.7178 -219.207L-102.366 249.388L-324.853 73.1099L-45.7178 -219.207Z" fill="#E28900"/>
<path d="M-102.366 249.388L-517.047 300.289L-751 -160.805L-324.853 73.1099L-102.366 249.388Z" fill="#FFE200"/>
</g>
<defs>
<clipPath id="clip0_7_509">
<rect width="1080" height="140" fill="white"/>
</clipPath>
</defs>
</svg>
