<svg width="53" height="53" viewBox="0 0 53 53" fill="none" xmlns="http://www.w3.org/2000/svg">
<g filter="url(#filter0_d_7_806)">
<path d="M6.05108 25.4194L39.0267 44.0323C42.9126 46.2289 49 44.4437 49 41.11V3.88424C49.001 3.13816 48.6686 2.4077 48.0427 1.78035C47.4168 1.153 46.5239 0.655349 45.4709 0.346987C44.4179 0.038626 43.2494 -0.067371 42.1055 0.0416897C40.9615 0.15075 39.8905 0.470245 39.0207 0.961915L6.05709 19.5748C5.411 19.939 4.89317 20.3883 4.53837 20.8923C4.18356 21.3963 4 21.9435 4 22.4971C4 23.0507 4.18356 23.5979 4.53837 24.1019C4.89317 24.6059 5.411 25.0552 6.05709 25.4194H6.05108Z" fill="#FAFCFC"/>
</g>
<defs>
<filter id="filter0_d_7_806" x="0" y="0" width="53" height="53" filterUnits="userSpaceOnUse" color-interpolation-filters="sRGB">
<feFlood flood-opacity="0" result="BackgroundImageFix"/>
<feColorMatrix in="SourceAlpha" type="matrix" values="0 0 0 0 0 0 0 0 0 0 0 0 0 0 0 0 0 0 127 0" result="hardAlpha"/>
<feOffset dy="4"/>
<feGaussianBlur stdDeviation="2"/>
<feComposite in2="hardAlpha" operator="out"/>
<feColorMatrix type="matrix" values="0 0 0 0 0 0 0 0 0 0 0 0 0 0 0 0 0 0 0.25 0"/>
<feBlend mode="normal" in2="BackgroundImageFix" result="effect1_dropShadow_7_806"/>
<feBlend mode="normal" in="SourceGraphic" in2="effect1_dropShadow_7_806" result="shape"/>
</filter>
</defs>
</svg>
